<svg width="24" height="24" viewBox="0 0 24 24" fill="none" xmlns="http://www.w3.org/2000/svg">
<path d="M15 8C14 8 11 8 9.5 9M2 13.5002L16.2894 21.7502C17.0069 22.1644 17.9242 21.9186 18.3385 21.2012M5.77779 2.5L10.6099 5.28984M10.6099 5.28984C12.4107 4.91421 14.547 4.99944 15 4.99967C15 7.99955 16 11 20.5 11L15.5549 8.14492M10.6099 5.28984C9.32354 5.55814 8.20835 6.06158 8 6.99908C7.49995 9.24908 13.5 10.9981 13.5 12.4991C13.5 14 7.5 15 7.5 15L9.5 16.3M18 5.99996C18 7.10453 18.8955 7.99998 20 8C21.1046 8.00002 22 7.10461 22 6.00004C22 4.89547 21.1045 4.00002 20 4C18.8954 3.99998 18 4.89539 18 5.99996Z" stroke="#26272B" stroke-width="1.5" stroke-linecap="round" stroke-linejoin="round"/>
</svg>
