<svg width="24" height="24" viewBox="0 0 24 24" fill="none" xmlns="http://www.w3.org/2000/svg">
<path d="M22 8.5H5.94938C1.40277 8.5 4.94935 4.5 7.08946 4.5M17 2.21387C19.3649 3.33733 21 5.74784 21 8.54024C21 11.3326 19.3649 13.7431 17 14.8666M9.99998 8.5C9.99998 11.9903 9.99998 17.4943 8.99998 22.5H6.99998M14 8.5C14 11.9903 14 17.4943 15 22.5H17M14 3.99996C14 5.10453 13.1045 5.99998 11.9999 6C10.8954 6.00002 9.99996 5.10461 9.99998 4.00004C10 2.89547 10.8955 2.00002 12 2C13.1046 1.99998 14 2.89539 14 3.99996Z" stroke="#26272B" stroke-width="1.5" stroke-linecap="round" stroke-linejoin="round"/>
</svg>
