<svg width="24" height="24" viewBox="0 0 24 24" fill="none" xmlns="http://www.w3.org/2000/svg">
<path d="M2.5 13.5H21.5M2.5 13.5V11.75M2.5 13.5V15.25M21.5 13.5V11.75M21.5 13.5V15.25M19 13.5C19 9.99996 15.5 7.99973 12 8C8.49999 8.00027 5 9.99985 5 13.4998M10.5 8.25C10.5 11.7363 10.5 17.0002 9.5 22.0003H7.5M13.5 8.25C13.5 11.7363 13.5 17.0002 14.5 22.0003H16.5M14 3.99996C14 5.10453 13.1045 5.99998 12 6C10.8954 6.00002 9.99998 5.10461 10 4.00004C10 2.89547 10.8955 2.00002 12 2C13.1046 1.99998 14 2.89539 14 3.99996Z" stroke="#26272B" stroke-width="1.5" stroke-linecap="round" stroke-linejoin="round"/>
</svg>
