<svg width="24" height="24" viewBox="0 0 24 24" fill="none" xmlns="http://www.w3.org/2000/svg">
<path d="M2.5 3.5C2.5 3.5 5.5 3 12 3C18.5 3 21.5 3.5 21.5 3.5M2 1.5L2.5 5.5M21.5 5.5L22 1.5M19 4C19 7.5 16 12.5 12 12.5C8 12.5 5 7.5 5 4M10.5 12.5V17C7.5 14.5 3.89638 13.5596 8.5 22H6.5M13.5 12.5V17C16.5 14.5 20.1036 13.5596 15.5 22H17.5M13.9531 7.94039C13.9531 9.04496 13.0577 9.94041 11.9531 9.94043C10.8485 9.94045 9.9531 9.04504 9.95312 7.94047C9.95315 6.8359 10.8486 5.94045 11.9532 5.94043C13.0577 5.94041 13.9531 6.83582 13.9531 7.94039Z" stroke="#26272B" stroke-width="1.5" stroke-linecap="round" stroke-linejoin="round"/>
</svg>
