<svg width="24" height="24" viewBox="0 0 24 24" fill="none" xmlns="http://www.w3.org/2000/svg">
<path d="M18 9.5C16.067 9.5 14.5 11.067 14.5 13C14.5 14.933 16.067 16.5 18 16.5C19.933 16.5 21.5 14.933 21.5 13C21.5 11.067 19.933 9.5 18 9.5ZM18 9.5C16.6103 9.5 12.6458 9.5 10.0822 6.71697C9.72895 6.3335 9.15423 6.20445 8.71537 6.48593C6.36585 7.99287 3.9066 10.1017 7.49974 11C11.4996 12 11.9997 11.5 11.4997 17M11.4995 8.50061C11.4995 8.50061 8.99976 9.5 7.99976 11M2 22.5L22 16.5M16.75 22.075L22 20.5M16 4C16 5.10457 15.1046 6 14 6C12.8954 6 12 5.10457 12 4C12 2.89543 12.8954 2 14 2C15.1046 2 16 2.89543 16 4ZM8.77393 16.6748C8.77393 18.6078 7.20692 20.1748 5.27393 20.1748C3.34093 20.1748 1.77393 18.6078 1.77393 16.6748C1.77393 14.7418 3.34093 13.1748 5.27393 13.1748C7.20692 13.1748 8.77393 14.7418 8.77393 16.6748Z" stroke="#26272B" stroke-width="1.5" stroke-linecap="round" stroke-linejoin="round"/>
</svg>
