<svg width="24" height="24" viewBox="0 0 24 24" fill="none" xmlns="http://www.w3.org/2000/svg">
<path d="M19 17V20M19 17C18.1716 17 17.5 16.3284 17.5 15.5V4.5C17.5 3.67157 18.1716 3 19 3C19.8284 3 20.5 3.67157 20.5 4.5V15.5C20.5 16.3284 19.8284 17 19 17ZM15.4997 8C15.4997 8 10.9998 9.5 7.49989 7.25C5.49964 10 3.99985 12 7.00024 13.5C10.0006 15 10.7505 18 10.0005 22H12.0005M9.5 10C8.5 12 6.5 16.25 2.5 22H4.5M7.5 7.5C10.5 11.5 11 12 14.5 10.5M22 22V21.5C22 20.6716 21.3284 20 20.5 20H17.5C16.6716 20 16 20.6716 16 21.5V22H22ZM12 3.99996C12 5.10453 11.1045 5.99998 9.99996 6C8.89539 6.00002 7.99998 5.10461 8 4.00004C8.00002 2.89547 8.89547 2.00002 10 2C11.1046 1.99998 12 2.89539 12 3.99996Z" stroke="#26272B" stroke-width="1.5" stroke-linecap="round" stroke-linejoin="round"/>
</svg>
