<svg width="24" height="24" viewBox="0 0 24 24" fill="none" xmlns="http://www.w3.org/2000/svg">
<path d="M18.6271 18H17C17.2712 16.4628 17 8.78882 15.9153 9.55735C13.2034 11.0948 13.0339 10.0699 11.678 10.8385C10.3221 11.6072 11.5 16 10.5 17.5C9.5 19 3.5 16.5002 3.5 16.5002L1.5 18.0002M16.5 12C15 13.5 13 14 11 13.5M22.5 7.5C22.5 8.60457 21.6046 9.5 20.5 9.5C19.3954 9.5 18.5 8.60457 18.5 7.5C18.5 6.39543 19.3954 5.5 20.5 5.5C21.6046 5.5 22.5 6.39543 22.5 7.5Z" stroke="#26272B" stroke-width="1.5" stroke-linecap="round" stroke-linejoin="round"/>
</svg>
