<svg width="24" height="24" viewBox="0 0 24 24" fill="none" xmlns="http://www.w3.org/2000/svg">
<path d="M18 17H16.5C16.75 15.5001 16.5 9.50003 16 8.49993C15.5 7.49983 14.5 6.99988 12.5 7.5C8.66868 8.45806 11.5 15 10.5 16.5C9.5 18 3.5 15.5 3.5 15.5L1.5 17M16 11C14.5 9.99985 12 10.0005 10.5 12.0002M22.5 8.5C22.5 9.60457 21.6046 10.5 20.5 10.5C19.3954 10.5 18.5 9.60457 18.5 8.5C18.5 7.39543 19.3954 6.5 20.5 6.5C21.6046 6.5 22.5 7.39543 22.5 8.5Z" stroke="#26272B" stroke-width="1.5" stroke-linecap="round" stroke-linejoin="round"/>
</svg>
