<svg width="24" height="24" viewBox="0 0 24 24" fill="none" xmlns="http://www.w3.org/2000/svg">
<path d="M2.5 12.4997C4 10.4995 7.5 7.99996 9.5 8.49963M9.5 8.49963C11.5 8.99929 9 17.4999 6.5 21.9999H8.5M9.5 8.49963C11.5 9.49963 14.5 6.5 14.5 4.5M22.5 12H18.5V17H13.5V22M7.99969 9C7.00005 12 6.50031 16.5 11.0002 12.5C15.5 8.5 16 10 14.5001 15.5H16.5001M11 3.99996C10.9999 5.10453 10.1045 5.99998 8.99992 6C7.89535 6.00002 6.99994 5.10461 6.99996 4.00004C6.99998 2.89547 7.89543 2.00002 9 2C10.1046 1.99998 11 2.89539 11 3.99996Z" stroke="#26272B" stroke-width="1.5" stroke-linecap="round" stroke-linejoin="round"/>
</svg>
