<svg width="24" height="24" viewBox="0 0 24 24" fill="none" xmlns="http://www.w3.org/2000/svg">
<g clip-path="url(#clip0_18071_1374)">
<path d="M6 11.5002C10 9.00017 16.5 6.99949 17 8.5C17.5 10.0005 16 12.9999 16 12.9999M2.00039 22.5006H10.2879C10.9629 22.5006 11.3004 22.1631 11.6379 21.8256M12.7129 19.0002H21.0004C21.6754 19.0002 22.0129 18.6627 22.3504 18.3252M1.5 5L7.75 12M14 9C13.75 11.75 13 16.5 5 21.5H7M13.5 13C20 13.0003 21 12.5002 17 18H19M14 3.49996C14 4.60453 14.8955 5.49998 16 5.5C17.1046 5.50002 18 4.60461 18 3.50004C18 2.39547 17.1045 1.50002 16 1.5C14.8954 1.49998 14 2.39539 14 3.49996Z" stroke="#26272B" stroke-width="1.5" stroke-linecap="round" stroke-linejoin="round"/>
</g>
<defs>
<clipPath id="clip0_18071_1374">
<rect width="24" height="24" fill="white"/>
</clipPath>
</defs>
</svg>
