<svg width="24" height="24" viewBox="0 0 24 24" fill="none" xmlns="http://www.w3.org/2000/svg">
<path d="M3.5 2C5 10 8.49965 5.5 12.4998 7.5C16.5 9.5 20.4992 14.5 20.9992 6M11 7.5C8 11.5 7 16 7 17C7 18 8 22.5 8 22.5H6M14 8.5C13 11 11.0003 15.5 12.5003 17.5C13.7003 19.1 17.0004 22.5 17.0004 22.5H15M16.5 3.49996C16.5 4.60453 15.6046 5.49998 14.5 5.5C13.3954 5.50002 12.5 4.60461 12.5 3.50004C12.5001 2.39547 13.3955 1.50002 14.5001 1.5C15.6047 1.49998 16.5001 2.39539 16.5 3.49996Z" stroke="#26272B" stroke-width="1.5" stroke-linecap="round" stroke-linejoin="round"/>
</svg>
