<svg width="24" height="24" viewBox="0 0 24 24" fill="none" xmlns="http://www.w3.org/2000/svg">
<path d="M19.3504 10.5087C18.4055 10.8106 17.089 10.9733 15.6898 11.0113M15.6898 11.0113C12.4976 11.0981 8.87468 10.5361 8.24958 9.49951C7.35048 8.00857 11.6417 2.75833 13.1005 3.00866C14.149 3.18858 15.1882 5.94671 15.6898 11.0113ZM15.6898 11.0113C15.886 12.9932 16 15.3281 16 18M11 10.0001C12 8 13.5 6.5 14.5 6M22 20.2245C17.7368 22.2238 15.7895 19.725 12 19.725C8.21053 19.725 6.26316 22.2243 2 20.2245M9.5 14.5C9.49998 15.6045 8.60453 16.5 7.49996 16.5C6.39539 16.5 5.49998 15.6046 5.5 14.5C5.50002 13.3955 6.39547 12.5 7.50004 12.5C8.60461 12.5 9.50002 13.3954 9.5 14.5Z" stroke="#26272B" stroke-width="1.5" stroke-linecap="round" stroke-linejoin="round"/>
</svg>
