<svg width="24" height="24" viewBox="0 0 24 24" fill="none" xmlns="http://www.w3.org/2000/svg">
<path d="M18.5001 17C17.1193 17.0001 16 18.1194 16 19.5001C16 20.8808 17.1192 22.0001 18.5 22C19.8807 22 21 20.8807 21 19.5C21 18.1193 19.8808 17 18.5001 17ZM18.5001 17L18.5 9.50004L21.5 6.50004M19.9995 9.50051C15.9995 9.50051 11.9995 9.00008 11.4998 5.00008C8.99954 5.50008 6.50087 7.50109 7.0003 9.50051C7.49973 11.4999 16.4996 10.0502 10.9996 16.0005M12 7.50004C12 7.50004 9.5 9.50004 8.5 11.5C7.5 13.5 7.5 18.5 7.5 18.5M18.5 19.5C18.5 19.5 6.88066 22 5.49995 22C4.11924 22.0001 2.99997 20.8808 3 19.5001C3.00003 18.1194 4.11934 17.0001 5.50005 17C6.88076 17 18.5 19.5 18.5 19.5ZM18 4.49996C17.9999 5.60453 17.1045 6.49998 15.9999 6.5C14.8954 6.50002 13.9999 5.60461 14 4.50004C14 3.39547 14.8954 2.50002 16 2.5C17.1046 2.49998 18 3.39539 18 4.49996Z" stroke="#26272B" stroke-width="1.5" stroke-linecap="round" stroke-linejoin="round"/>
</svg>
