<svg width="24" height="24" viewBox="0 0 24 24" fill="none" xmlns="http://www.w3.org/2000/svg">
<path d="M1.5 3V2.25M1.5 3V3.75M1.5 3L4 2.99998M6.5 3V2.25M6.5 3V3.75M6.5 3L4 2.99998M17.5 3V2.25M17.5 3V3.75M17.5 3L20 3M22.5 3V2.25M22.5 3V3.75M22.5 3L20 3M4 2.99998C5 9 6.49999 8.46787 12 8.48393C17.5 8.5 19 9 20 3M10.5 8.5C10.5 11.9863 10.5 17.0002 9.5 22.0003H7.5M13.5 8.5C13.5 11.9863 13.5 17.0002 14.5 22.0003H16.5M14 3.99996C14 5.10453 13.1045 5.99998 12 6C10.8954 6.00002 9.99998 5.10461 10 4.00004C10 2.89547 10.8955 2.00002 12 2C13.1046 1.99998 14 2.89539 14 3.99996Z" stroke="#26272B" stroke-width="1.5" stroke-linecap="round" stroke-linejoin="round"/>
</svg>
