<svg width="24" height="24" viewBox="0 0 24 24" fill="none" xmlns="http://www.w3.org/2000/svg">
<path d="M1.5 2.5C3.5 8 7.5 5 10.5 8.5M10.5 8.5C9 11.25 6.5 17 2 20.9997L4 21.9997M10.5 8.5C11.5 10.5 14.5001 10.5002 16.5001 10.0002M7.99992 7.25C6.25001 9.75 4.49994 12 7.00013 13.25C9.50031 14.5 11.5003 16 10.7499 22H12.7499M16.5001 10.0002L22.6074 7.77735M16.5001 10.0002C15.9529 8.4967 14.6885 8.53125 14.6885 8.53125M16.5001 10.0002C17.0474 11.5037 16.0566 12.29 16.0566 12.29M14 3.99996C14 5.10453 13.1045 5.99998 12 6C10.8954 6.00002 9.99998 5.10461 10 4.00004C10 2.89547 10.8955 2.00002 12 2C13.1046 1.99998 14 2.89539 14 3.99996Z" stroke="#26272B" stroke-width="1.5" stroke-linecap="round" stroke-linejoin="round"/>
</svg>
