<svg width="24" height="24" viewBox="0 0 24 24" fill="none" xmlns="http://www.w3.org/2000/svg">
<path d="M12.5 19.5L17 15.5H4.5C2.5 15.5 2.5 18.5 6 20.5M22 20.2245C17.7368 22.2238 15.7895 19.725 12 19.725C8.21053 19.725 6.26316 22.2243 2 20.2245M8 10.5C7.50009 11.9997 8.00372 14.5003 8.50314 15.4996M5.1941 15.4996C4.49974 13 4.50035 8.49878 6.50018 9.49939C8.5 10.5 10.0001 12.9996 15.0001 9.99964M20.5 20.5V3C18 3 14.5 5 14 10M9 4.99996C8.99998 6.10453 8.10453 6.99998 6.99996 7C5.89539 7.00002 4.99998 6.10461 5 5.00004C5.00002 3.89547 5.89547 3.00002 7.00004 3C8.10461 2.99998 9.00002 3.89539 9 4.99996Z" stroke="#26272B" stroke-width="1.5" stroke-linecap="round" stroke-linejoin="round"/>
</svg>
