<svg width="24" height="24" viewBox="0 0 24 24" fill="none" xmlns="http://www.w3.org/2000/svg">
<path d="M20.9354 11.9988C18.5972 10.6488 12.0502 7.18187 11.0002 9.00052C10.1602 10.4554 11.5 16 15.5 22H13.5M13.5 9C14.5973 13.0992 16.0003 15 10.9995 14C5.99876 13 6 12.5 7.99996 19.5H6M11 8.99951C8.01759 11.0634 6 8.24975 5 4.5M14.5 3.99996C14.5 5.10453 13.6045 5.99998 12.5 6C11.3954 6.00002 10.5 5.10461 10.5 4.00004C10.5 2.89547 11.3955 2.00002 12.5 2C13.6046 1.99998 14.5 2.89539 14.5 3.99996Z" stroke="#26272B" stroke-width="1.5" stroke-linecap="round" stroke-linejoin="round"/>
</svg>
