<svg width="24" height="24" viewBox="0 0 24 24" fill="none" xmlns="http://www.w3.org/2000/svg">
<path d="M12.5 15.9997C14.5 9.5 13 9.73749 15 5.16602L17.5 5.99935M10 15.5C11 11 8.5 8 7 5.5L9.5 6.5M3 17.4566C10.9999 14.4566 15 15.4996 19 21.4996M4.07422 3.07324L18.6359 8.37325C19.4143 8.65659 19.8157 9.51735 19.5324 10.2958M7.5752 1.07324L22.1369 6.37325C22.9153 6.65659 23.3167 7.51736 23.0334 8.29582M12.5 20.5C12.5 21.6046 11.6046 22.5 10.5 22.5C9.39543 22.5 8.5 21.6046 8.5 20.5C8.5 19.3954 9.39543 18.5 10.5 18.5C11.6046 18.5 12.5 19.3954 12.5 20.5Z" stroke="#26272B" stroke-width="1.5" stroke-linecap="round" stroke-linejoin="round"/>
</svg>
