<svg width="24" height="24" viewBox="0 0 24 24" fill="none" xmlns="http://www.w3.org/2000/svg">
<path d="M6 2.5C7 6.5 10.75 10 13.75 10C13.9223 11.0339 14.4509 12.0678 15.0903 12.7742C15.5026 13.2298 15.6773 13.9537 15.2717 14.4152C12.6172 17.4354 8.18681 19.5895 5 20.5M13.5 10C9.5 11 7 11.5 4.5 11.5M10.8924 10.6259C12.5 15.5 16 18.5 22 21M22 12C22 17.5228 17.5228 22 12 22C6.47715 22 2 17.5228 2 12C2 6.47715 6.47715 2 12 2C17.5228 2 22 6.47715 22 12ZM11.5 5.99992C11.5 7.10449 12.3954 7.99994 13.5 7.99996C14.6046 7.99998 15.5 7.10457 15.5 6C15.4999 4.89543 14.6045 3.99998 13.4999 3.99996C12.3954 3.99994 11.4999 4.89535 11.5 5.99992Z" stroke="#26272B" stroke-width="1.5" stroke-linecap="round" stroke-linejoin="round"/>
</svg>
