<svg width="24" height="24" viewBox="0 0 24 24" fill="none" xmlns="http://www.w3.org/2000/svg">
<path d="M19.5 17L16 7.5C13 8.90429 10.5001 8.5 8.50005 7C6.50022 11.5 6.9998 13 9.49986 13C11.9999 13 13 12 12.5 18L14.5003 17.5M2 22.5L22 16.5M11 8.5C10.5 12 8.5 14.5 5.5 20L7.5 19.5M5.5 6.5L4.5 9M16.75 22.075L22 20.5M13 3.49996C13 4.60453 12.1045 5.49998 11 5.5C9.89539 5.50002 8.99998 4.60461 9 3.50004C9.00002 2.39547 9.89547 1.50002 11 1.5C12.1046 1.49998 13 2.39539 13 3.49996Z" stroke="#26272B" stroke-width="1.5" stroke-linecap="round" stroke-linejoin="round"/>
</svg>
