<svg width="24" height="24" viewBox="0 0 24 24" fill="none" xmlns="http://www.w3.org/2000/svg">
<path d="M20.0002 11.0004C20.0002 11.0004 17.5002 7.29965 11.5 8.50057C5.4997 9.7015 4.0002 14.5004 4.0002 14.5004M10.0002 9.5C10.0002 9.5 11.5002 13.5 8.0002 21.5L6.0002 22M13.5002 8.5L14.0002 22H16.0002M13.0002 3.99996C13.0002 5.10453 12.1047 5.99998 11.0002 6C9.89559 6.00002 9.00018 5.10461 9.0002 4.00004C9.00022 2.89547 9.89567 2.00002 11.0002 2C12.1048 1.99998 13.0002 2.89539 13.0002 3.99996ZM22.1729 11.4111C22.3873 12.2113 18.0203 14.0767 12.4189 15.5776C6.81748 17.0785 2.10284 17.6465 1.88843 16.8463C1.67402 16.0462 6.04103 14.1808 11.6424 12.6799C17.2438 11.179 21.9585 10.611 22.1729 11.4111Z" stroke="#26272B" stroke-width="1.5" stroke-linecap="round" stroke-linejoin="round"/>
</svg>
