<svg width="24" height="24" viewBox="0 0 24 24" fill="none" xmlns="http://www.w3.org/2000/svg">
<path d="M13.5 8.5V22.5M10.5 8.4998V15.25C10.5 15.9567 9.75 18.25 9.75 18.25M20 12.5C20 17.6765 16.5714 20.5 12 20.5C7.42857 20.5 4 17.6765 4 12.5C5 10.5 7.42857 7.5 12 7.5C16.5714 7.5 19 10.5 20 12.5ZM14 3.49996C14 4.60453 13.1046 5.49998 12 5.5C10.8954 5.50002 10 4.60461 10 3.50004C10.0001 2.39547 10.8955 1.50002 12.0001 1.5C13.1047 1.49998 14.0001 2.39539 14 3.49996Z" stroke="#26272B" stroke-width="1.5" stroke-linecap="round" stroke-linejoin="round"/>
</svg>
