<svg width="24" height="24" viewBox="0 0 24 24" fill="none" xmlns="http://www.w3.org/2000/svg">
<path d="M14.5001 11.9992C18.0001 13.4999 20.5 16.9999 15.4997 17.5C10.4995 18 0.500183 19.4988 20.5 19.4993M13.5001 14.4999C14.5001 14.9999 16.0001 15.9999 16.0001 16.9999M9.33262 4.65603L3.83282 14.182M9.33262 4.65603C9.33262 4.65603 8.75009 3.16501 9.25009 2.29898C9.75009 1.43296 10.4331 1.24994 11.0826 1.62494C11.7321 1.99994 11.9152 2.68296 11.4152 3.54898C10.9152 4.41501 9.33262 4.65603 9.33262 4.65603ZM3.83282 14.182C3.83282 14.182 2.2503 14.423 1.7503 15.289C1.2503 16.155 1.43331 16.838 2.08283 17.213C2.73235 17.588 3.41536 17.405 3.91536 16.539C4.41536 15.673 3.83282 14.182 3.83282 14.182ZM22.5001 19.9999C22.5001 19.9999 21.0859 21.9999 14.5001 21.9999C7.91431 21.9999 6.50009 19.9999 6.50009 19.9999M9.17177 4.89568C11.9004 6.47104 15.5001 10.4999 13.6321 13.5331C11.7642 16.5662 6.65031 15.5643 3.92171 13.9889M12.0001 11.4999C12.0001 12.6044 11.1046 13.4999 10 13.4999C8.89548 13.4999 8.00007 12.6045 8.00009 11.4999C8.00012 10.3954 8.89556 9.49993 10.0001 9.4999C11.1047 9.49988 12.0001 10.3953 12.0001 11.4999Z" stroke="#26272B" stroke-width="1.5" stroke-linecap="round" stroke-linejoin="round"/>
</svg>
