<svg width="24" height="24" viewBox="0 0 24 24" fill="none" xmlns="http://www.w3.org/2000/svg">
<path d="M2 13.4995C11.5 8.00029 14 17.5003 22 13.4996M14.5002 9.50033C13.5004 12.5003 11.4995 19.0003 15.5002 21.5003M11 8.5C10 14 9 16.5 6 22.5M22 9C14.5 10.5 8.41361 8.37582 4 4M12 4.49996C12 5.60453 12.8955 6.49998 14.0001 6.5C15.1046 6.50002 16 5.60461 16 4.50004C16 3.39547 15.1045 2.50002 14 2.5C12.8954 2.49998 12 3.39539 12 4.49996Z" stroke="#26272B" stroke-width="1.5" stroke-linecap="round" stroke-linejoin="round"/>
</svg>
