<svg width="24" height="24" viewBox="0 0 24 24" fill="none" xmlns="http://www.w3.org/2000/svg">
<path d="M10.5 10C10.5 12 10.5 15.5 10 17.125M14 17.125C13.25 16.125 13.5 12 13.5 10M16 22C12 21.1514 4 18.2505 4 17.4358C4 16.5456 9.09377 17.2116 11.2668 17.7335C11.7451 17.8484 12.2549 17.8484 12.7332 17.7335C14.9062 17.2116 20 16.5456 20 17.4358C20 18.2505 12 21.1514 8 22M3 15C7.8 15 9 10.2995 10.2 9.55693C11.4 8.81439 12.6 8.81426 13.8 9.55711C15 10.3 16.2 15 21 15M14 4.5C14 5.60457 13.1046 6.5 12 6.5C10.8954 6.5 10 5.60457 10 4.5C10 3.39543 10.8954 2.5 12 2.5C13.1046 2.5 14 3.39543 14 4.5Z" stroke="#26272B" stroke-width="1.5" stroke-linecap="round" stroke-linejoin="round"/>
</svg>
