<svg width="24" height="24" viewBox="0 0 24 24" fill="none" xmlns="http://www.w3.org/2000/svg">
<path d="M21 17.5005C18 14.9999 16.4518 9.35571 15.5 9.00031C14.5482 8.64492 10.0003 10.2505 9.50034 11.5005C9.00034 12.7505 15.5003 14.4999 15.0002 15.4999C14.5002 16.4999 11.5002 18.5005 11.5002 18.5005H13.5002M16 11C12 13 6 16.4811 2 18M22 6.99996C22 8.10452 21.1045 8.99998 20 9C18.8954 9.00002 18 8.10461 18 7.00004C18 5.89547 18.8955 5.00002 20 5C21.1046 4.99998 22 5.89539 22 6.99996Z" stroke="#26272B" stroke-width="1.5" stroke-linecap="round" stroke-linejoin="round"/>
</svg>
