<svg width="24" height="24" viewBox="0 0 24 24" fill="none" xmlns="http://www.w3.org/2000/svg">
<path d="M3.5 4V2M3.5 4C2.67157 4 2 4.67157 2 5.5C2 6.32843 2.67157 7 3.5 7M3.5 4C4.32843 4 5 4.67157 5 5.5C5 6.32843 4.32843 7 3.5 7M20.5 4V2M20.5 4C19.6716 4 19 4.67157 19 5.5C19 6.32843 19.6716 7 20.5 7M20.5 4C21.3284 4 22 4.67157 22 5.5C22 6.32843 21.3284 7 20.5 7M3.5 7C9.16667 9.66667 14.8333 9.66667 20.5 7M10 9.5C10 17 9 17.5 4.5 20.5M14 9.5C14 13.5 14 18.5 11.5 22.5M10 4.49996C10 5.60453 10.8955 6.49998 12.0001 6.5C13.1046 6.50002 14 5.60461 14 4.50004C14 3.39547 13.1045 2.50002 12 2.5C10.8954 2.49998 9.99998 3.39539 10 4.49996Z" stroke="#26272B" stroke-width="1.5" stroke-linecap="round" stroke-linejoin="round"/>
</svg>
