<svg width="24" height="24" viewBox="0 0 24 24" fill="none" xmlns="http://www.w3.org/2000/svg">
<path d="M3.5 4.00016C3.49998 5.10473 4.39539 6.00014 5.49996 6.00012C6.60453 6.0001 7.49998 5.10465 7.5 4.00008C7.50002 2.89551 6.60461 2.0001 5.50004 2.00012C4.39547 2.00015 3.50002 2.89559 3.5 4.00016ZM3.5 4.00016C3.5 7.50016 8 9.00004 13 9.50004C18 10 20.5 11.5 22 14.5M12 9.50004C12 14 11.5 16.5 3.5 21M14.5 10C15 14 15 16.5 10.5 22.5M11.5 13.75C12 13.7499 13.5001 14.0004 14 14.5001M15 5.00004C15 6.10461 14.1045 7.00006 13 7.00008C11.8954 7.0001 11 6.10469 11 5.00012C11 3.89555 11.8955 3.0001 13 3.00008C14.1046 3.00006 15 3.89547 15 5.00004Z" stroke="#26272B" stroke-width="1.5" stroke-linecap="round" stroke-linejoin="round"/>
</svg>
