<svg width="24" height="24" viewBox="0 0 24 24" fill="none" xmlns="http://www.w3.org/2000/svg">
<path d="M11.5 13.5C12 13 14 12.5 14.5 12.5M5.00089 4.99996C2.5009 9.99996 3.00067 10.5 10.5003 8.99996M10.5003 8.99996C18 7.49996 21.0009 7.99996 21.0009 7.99996M10.5003 8.99996C12.5003 16.5 9.99414 18 4.5 20.5M13.5 8.49996C16 16.5 16.5 17 11.5 22.5M21 3.49996C21 4.60453 20.1045 5.49998 19 5.5C17.8954 5.50002 17 4.60461 17 3.50004C17 2.39547 17.8955 1.50002 19 1.5C20.1046 1.49998 21 2.39539 21 3.49996ZM13 4.49987C13 5.60444 12.1045 6.49989 11 6.49992C9.89539 6.49994 8.99998 5.60453 9 4.49996C9.00002 3.39539 9.89547 2.49994 11 2.49992C12.1046 2.49989 13 3.39531 13 4.49987Z" stroke="#26272B" stroke-width="1.5" stroke-linecap="round" stroke-linejoin="round"/>
</svg>
