<svg width="24" height="24" viewBox="0 0 24 24" fill="none" xmlns="http://www.w3.org/2000/svg">
<path d="M13.5 6.49996C17.25 10.25 17 11 14.5001 12.9999C12.0002 14.9998 12.2622 18.0324 12 22L9.96875 22M11 8.24996C9.68743 9.25 8 10.5 5 11.5M11 8.24996C16.5 3.50015 19 6.25074 20.5 8.50074M11 8.24996C14.1854 11.1904 16.4688 14.499 20 22L17.9688 22M22 8.49996L2 13M12 3.49996C12 4.60453 11.1045 5.49998 9.99996 5.5C8.89539 5.50002 7.99998 4.60461 8 3.50004C8.00002 2.39547 8.89547 1.50002 10 1.5C11.1046 1.49998 12 2.39539 12 3.49996Z" stroke="#26272B" stroke-width="1.5" stroke-linecap="round" stroke-linejoin="round"/>
</svg>
