<svg width="24" height="24" viewBox="0 0 24 24" fill="none" xmlns="http://www.w3.org/2000/svg">
<path d="M11.4996 12.4997C11.4996 13.8734 11.4126 14.8035 10.5 16.1285M14.5 12.5C14.7077 13.9418 14.5361 15.1855 14 16.5M3.5 7.50006C3.49998 8.32849 4.17154 9.00005 4.99997 9.00003C5.8284 9.00001 6.49998 8.32843 6.5 7.5C6.50002 6.67157 5.82846 6.00001 5.00003 6.00003C4.1716 6.00005 3.50002 6.67164 3.5 7.50006ZM3.5 7.50006C4 10.0001 8 12.5 12 12C16 11.5 17 12 20.5 14M22 16.9998C17.7368 18.9992 15.7895 16.5004 12 16.5004C8.21053 16.5004 6.26316 18.9997 2 16.9998M14.5 7.49996C14.5 8.60453 13.6045 9.49998 12.5 9.5C11.3954 9.50002 10.5 8.60461 10.5 7.50004C10.5 6.39547 11.3955 5.50002 12.5 5.5C13.6046 5.49998 14.5 6.39539 14.5 7.49996Z" stroke="#26272B" stroke-width="1.5" stroke-linecap="round" stroke-linejoin="round"/>
</svg>
