<svg width="24" height="24" viewBox="0 0 24 24" fill="none" xmlns="http://www.w3.org/2000/svg">
<path d="M7.49993 11.9997C7.90971 11.7631 8.05608 11.2429 7.82981 10.8274L3.99104 3.77719C3.69613 3.23556 3.01288 3.0433 2.47879 3.35166C1.94469 3.66002 1.76957 4.34786 2.09118 4.87408L6.25198 11.682C6.5129 12.1089 7.06664 12.2499 7.49993 11.9997ZM7.49993 11.9997C10.4999 10.9997 13.5 8.99991 16 6.99991C18 10.4999 18.5 11.4999 16 13.4999C13.5 15.4999 12 17.9999 11.5 21.9996H9.49999M13.5 9C15 12 18.6667 18.5 21 22H19M14.5 3.99996C14.5 5.10453 13.6045 5.99998 12.5 6C11.3954 6.00002 10.5 5.10461 10.5 4.00004C10.5 2.89547 11.3955 2.00002 12.5 2C13.6046 1.99998 14.5 2.89539 14.5 3.99996Z" stroke="#26272B" stroke-width="1.5" stroke-linecap="round" stroke-linejoin="round"/>
</svg>
