<svg width="24" height="24" viewBox="0 0 24 24" fill="none" xmlns="http://www.w3.org/2000/svg">
<path d="M14 10C11.5 15 8 18.5 2.5 21H4.5M20 12.5C15 11 14.4998 9.49961 12 7.49961C10.9999 7.99944 5.50023 13.4996 11.5002 13.4996C17.5002 13.4996 15.0002 16.9996 11.5002 20.9996H13.5002M21 19H18C17.4477 19 17 19.4477 17 20C17 20.5523 17.4477 21 18 21H21C21.5523 21 22 20.5523 22 20C22 19.4477 21.5523 19 21 19ZM21 19V17H18M18 4.99996C18 6.10453 17.1045 6.99998 16 7C14.8954 7.00002 14 6.10461 14 5.00004C14 3.89547 14.8955 3.00002 16 3C17.1046 2.99998 18 3.89539 18 4.99996Z" stroke="#26272B" stroke-width="1.5" stroke-linecap="round" stroke-linejoin="round"/>
</svg>
