<svg width="24" height="24" viewBox="0 0 24 24" fill="none" xmlns="http://www.w3.org/2000/svg">
<path d="M9.5 17C9.5 17.8284 10.1716 18.5 11 18.5C11.8284 18.5 12.5 17.8284 12.5 17C12.5 16.1716 11.8284 15.5 11 15.5C10.1716 15.5 9.5 16.1716 9.5 17ZM9.5 17C9.5 15.83 11.5262 13.51 13.195 11.3727M13.195 11.3727C15.092 8.94331 16.5272 6.75 14.0003 6.75M13.195 11.3727C12.5484 11.39 11.8177 11.4371 11 11.5C4.49998 12 9.25023 6.75 14.0003 6.75M13.195 11.3727C17.6883 11.2524 18.1226 12.5694 15.5003 20.0004H17.5M14.0003 6.75C11.0003 5.50005 5.25 4.50001 2.5 4.5M14.5 9C10.5 10.5 7 13.5 3 20.002H5M21.5 7C21.5 8.10457 20.6046 9 19.5 9C18.3954 9 17.5 8.10457 17.5 7C17.5 5.89543 18.3954 5 19.5 5C20.6046 5 21.5 5.89543 21.5 7Z" stroke="#26272B" stroke-width="1.5" stroke-linecap="round" stroke-linejoin="round"/>
</svg>
