<svg width="24" height="24" viewBox="0 0 24 24" fill="none" xmlns="http://www.w3.org/2000/svg">
<path d="M12.5 9.49996C15.5 13 14.5 16.5 9.00004 21.5H11M22 7.99979C11 3.99993 14 12.5 5.50004 11.0002L4.55095 7.45848M15 7.49996C17.5 11 19 13.5 18 21.5H20M4.55095 7.45848C5.51692 7.19966 6.13775 5.65293 5.70638 4.04306C5.27502 2.43318 4.13655 2.04805 3.17066 2.30686C2.20477 2.56567 1.41137 3.46867 1.84271 5.07844C2.27405 6.68821 3.58499 7.71731 4.55095 7.45848ZM13.5 3.99996C13.5 5.10453 12.6046 5.99998 11.5 6C10.3954 6.00002 9.50002 5.10461 9.50004 4.00004C9.50006 2.89547 10.3955 2.00002 11.5001 2C12.6046 1.99998 13.5001 2.89539 13.5 3.99996Z" stroke="#26272B" stroke-width="1.5" stroke-linecap="round" stroke-linejoin="round"/>
</svg>
