<svg width="24" height="24" viewBox="0 0 24 24" fill="none" xmlns="http://www.w3.org/2000/svg">
<path d="M3.5 9.99989C7.5 5.5002 13.8559 7.45896 13.5 8.99936M13.5 8.99936C13.1995 10.2999 11 15.5 3.5 20.5L5 22M13.5 8.99936C13.5 10.2494 15 12.5 18 12.5M11.5004 7.50004C10.0008 10.5 7.4997 11 10.9999 13.5C14.5 16 14 16.5 9.50043 22H11.5004M17 3.99996C17 5.10453 16.1045 5.99998 15 6C13.8954 6.00002 13 5.10461 13 4.00004C13 2.89547 13.8955 2.00002 15 2C16.1046 1.99998 17 2.89539 17 3.99996ZM21.0981 13.5981C20.2697 15.0329 19.0165 15.8604 18.299 15.4462C17.5816 15.032 17.6715 13.533 18.5 12.0982C19.3284 10.6633 20.5816 9.83587 21.2991 10.2501C22.0165 10.6642 21.9265 12.1632 21.0981 13.5981Z" stroke="#26272B" stroke-width="1.5" stroke-linecap="round" stroke-linejoin="round"/>
</svg>
