<svg width="24" height="24" viewBox="0 0 24 24" fill="none" xmlns="http://www.w3.org/2000/svg">
<path d="M14.5 8C6.5 12.5 10 15 3.5 18.5L5 19.5M2.5 20.2L4 21.2M10.5 21.5H12.5M21.5718 20.7019L21.379 20.8454C20.9071 21.1968 20.2353 21.0669 19.9285 20.5648L15 12.5M16.5 14.5C16 8.5 13.9999 5.50028 12.5003 5.99999C11.0008 6.4997 6.99973 8.99994 8.99966 10.9996C10.9996 12.9992 12.5 12.9995 10.4998 19.4995L12.5 19.4991M20.5 4.49996C20.4999 5.60453 19.6045 6.49998 18.4999 6.5C17.3954 6.50002 16.4999 5.60461 16.5 4.50004C16.5 3.39547 17.3954 2.50002 18.5 2.5C19.6046 2.49998 20.5 3.39539 20.5 4.49996Z" stroke="#26272B" stroke-width="1.5" stroke-linecap="round" stroke-linejoin="round"/>
</svg>
