<svg width="24" height="24" viewBox="0 0 24 24" fill="none" xmlns="http://www.w3.org/2000/svg">
<path d="M3 9.5L2.25 7.5L7.27993 5.52101M14 8.50003C15.5 12.5 13.5 16.5 9.5 22.5H11.5M10.5 8.5C17 8.5 18 4.5 17.5 1.5L10.9548 4.07517M10.5 8.5C12.25 11.25 11 13.0007 13.5 13.2503C16 13.5 18 19.0003 17 22.5003H19M10.5 8.5C14 7.49967 14.5 4.5 14.5 3M10.9548 4.07517C10.9844 4.2121 11 4.35425 11 4.50004C11 5.60461 10.1046 6.50002 9.00004 6.5C8.26848 6.49998 7.62865 6.10719 7.27993 5.52101M10.9548 4.07517C10.76 3.17469 9.95874 2.50002 8.99996 2.5C7.89539 2.49998 6.99998 3.39539 7 4.49996C7.00001 4.87297 7.10213 5.22213 7.27993 5.52101" stroke="#26272B" stroke-width="1.5" stroke-linecap="round" stroke-linejoin="round"/>
</svg>
