<svg width="24" height="24" viewBox="0 0 24 24" fill="none" xmlns="http://www.w3.org/2000/svg">
<path d="M18.8329 10.8238C19.699 11.3238 21.2317 10.6691 22.065 9.22576C22.8983 7.78239 22.3657 6.70504 21.4997 6.20506C20.6337 5.70508 19.4341 5.78258 18.6009 7.22586C17.7676 8.66914 17.9669 10.3238 18.8329 10.8238ZM18.8329 10.8238L16.9997 13.9993C11.9997 12.4991 11.9995 5.49913 9.99999 7.99915C8.00047 10.4992 5.99961 12.4994 9.9998 13.9997C14 15.5 14.5 14.0001 13.4994 21.4994H15.4993M12.5 9.99996C10 14.5 5 19.5 2.5 21.5H4.5M10.5 7.5C9 8.5 5 9.5 2 9M16.5 4.49996C16.5 5.60453 15.6045 6.49998 14.5 6.5C13.3954 6.50002 12.5 5.60461 12.5 4.50004C12.5 3.39547 13.3955 2.50002 14.5 2.5C15.6046 2.49998 16.5 3.39539 16.5 4.49996Z" stroke="#26272B" stroke-width="1.5" stroke-linecap="round" stroke-linejoin="round"/>
</svg>
