<svg width="24" height="24" viewBox="0 0 24 24" fill="none" xmlns="http://www.w3.org/2000/svg">
<path d="M6.5 9C12.0388 7.5 12.5001 7 13.0001 2.5M6.5 9C7.42021 9 8.25024 8.96994 9 8.90981M6.5 9C6.5 12.8654 6.96693 16.264 10.6081 13.7809M15.9999 4.49948C15.1416 7.07521 13.5462 8.54521 9 8.90981M12 1.5L17.9464 5.06783C18.9102 5.64615 19.5 6.68777 19.5 7.81181V22.5M19 14L17.5001 16C16 9 15 10.5 11 13.5C10.8654 13.6009 10.7348 13.6945 10.6081 13.7809M9 8.90981C9.70295 10.9184 10.2445 12.5071 10.6081 13.7809M6.50017 22.4995L5.43951 20.6624C10.6823 18.9343 12.0545 18.8493 10.6081 13.7809M9 4C9 5.10457 8.10457 6 7 6C5.89543 6 5 5.10457 5 4C5 2.89543 5.89543 2 7 2C8.10457 2 9 2.89543 9 4Z" stroke="#26272B" stroke-width="1.5" stroke-linecap="round" stroke-linejoin="round"/>
</svg>
