<svg width="24" height="24" viewBox="0 0 24 24" fill="none" xmlns="http://www.w3.org/2000/svg">
<path d="M2.5 19.5H18.2639C19.0215 19.5 19.714 19.072 20.0528 18.3944L21 16.5M22 14.5L21 16.5M12.5 11L21 16.5" stroke="#26272B" stroke-width="1.5" stroke-linecap="round" stroke-linejoin="round"/>
<path d="M12.4997 10.9996C8.99971 11.9999 7.03733 12.1807 3.9995 10.4996C3.03728 12.6806 3.49987 16.4994 4.99998 18.0001C8.49972 13.9996 8.5002 12 16 18.0001H18M6.5 11.9996C6.00009 13.4994 6.49982 14.4993 6.99925 15.4986M7.5 5.99959C7.49998 7.10416 6.60453 7.99961 5.49996 7.99963C4.39539 7.99966 3.49998 7.10424 3.5 5.99967C3.50002 4.89511 4.39547 3.99966 5.50004 3.99963C6.60461 3.99961 7.50002 4.89502 7.5 5.99959Z" stroke="#26272B" stroke-width="1.5" stroke-linecap="round" stroke-linejoin="round"/>
</svg>
