<svg width="24" height="24" viewBox="0 0 24 24" fill="none" xmlns="http://www.w3.org/2000/svg">
<path d="M3.5 5.5C6.25 5.5 15.5 6.5 15.5 9C15.5 10.7611 9.5 16 8.5 16.5C7.5 17 6 15.5 3.5 13.5L2.5 15.5M13.5 7.25C10.3 10.0518 9.50071 11.5 12.5006 13C15.5005 14.5 17 13.5 13.5 22H15.5M15.5 8.69961C15.5 11.5 21 11 21 8M19 3.99996C19 5.10453 18.1045 5.99998 17 6C15.8954 6.00002 15 5.10461 15 4.00004C15 2.89547 15.8955 2.00002 17 2C18.1046 1.99998 19 2.89539 19 3.99996Z" stroke="#26272B" stroke-width="1.5" stroke-linecap="round" stroke-linejoin="round"/>
</svg>
