<svg width="24" height="24" viewBox="0 0 24 24" fill="none" xmlns="http://www.w3.org/2000/svg">
<path d="M2 19C2 19 5.33333 20 12 20C18.6667 20 22 19 22 19" stroke="#26272B" stroke-width="1.5" stroke-linecap="round" stroke-linejoin="round"/>
<path d="M15.5 11C12 12.0003 8.53732 12.1811 5.49949 10.5C4.53727 12.6809 4.99989 16.9993 6.5 18.5C9.99975 14.4995 10.5002 12.2999 18 18.3L20 18.0005M7.99999 12C7.50008 13.4997 7.99982 14.4996 8.49924 15.4989M8.99999 5.99996C8.99997 7.10453 8.10452 7.99998 6.99996 8C5.89539 8.00002 4.99997 7.10461 4.99999 6.00004C5.00002 4.89547 5.89547 4.00002 7.00004 4C8.1046 3.99998 9.00002 4.89539 8.99999 5.99996Z" stroke="#26272B" stroke-width="1.5" stroke-linecap="round" stroke-linejoin="round"/>
<path d="M19.9995 2C18.9995 5 15.5 7.5 12.5 9.5C14 11.5 17.9995 14 19.9995 14.5" stroke="#26272B" stroke-width="1.5" stroke-linecap="round" stroke-linejoin="round"/>
</svg>
