<svg width="24" height="24" viewBox="0 0 24 24" fill="none" xmlns="http://www.w3.org/2000/svg">
<path d="M21 19.5L19.152 7.94991C19.0671 7.41944 19.4165 6.91669 19.9433 6.81134L21.5 6.5M21 19.5C20.1716 19.5 19.5 20.1716 19.5 21C19.5 21.8284 20.1716 22.5 21 22.5C21.8284 22.5 22.5 21.8284 22.5 21C22.5 20.1716 21.8284 19.5 21 19.5ZM8 21H19M8 21C8 21.8284 7.32843 22.5 6.5 22.5C5.67157 22.5 5 21.8284 5 21C5 20.1716 5.67157 19.5 6.5 19.5C7.32843 19.5 8 20.1716 8 21ZM12.5 8C7 17.5 8 18 2.5 14L2 16M19.9999 9C14.9999 11 15.9999 10.5 10.5001 6.5C7 10.5 9.00016 11 11.5 12.5C13.9999 14 13.9999 13.5 13.0902 19.5H14.9998M16 3.49996C15.9999 4.60453 15.1045 5.49998 13.9999 5.5C12.8953 5.50002 11.9999 4.60461 12 3.50004C12 2.39547 12.8954 1.50002 14 1.5C15.1046 1.49998 16 2.39539 16 3.49996Z" stroke="#26272B" stroke-width="1.5" stroke-linecap="round" stroke-linejoin="round"/>
</svg>
