<svg width="24" height="24" viewBox="0 0 24 24" fill="none" xmlns="http://www.w3.org/2000/svg">
<path d="M18.5 22.0001C18 18.5001 16.75 14.7501 15.25 13.0001M15.25 13.0001C10.7563 12.7575 7.75 13.0001 7.75 6.50006M15.25 13.0001C15.25 13.0001 16 18.5001 14.5 22.5001M15 16.0001C8.5 16.5001 4 14.0001 2 6.00006M22 3.22452C17.7368 5.22387 15.7895 2.7251 12 2.7251C8.21053 2.7251 6.26316 5.22433 2 3.22452M22 12.5001C22 13.6046 21.1045 14.5001 20 14.5001C18.8954 14.5001 18 13.6047 18 12.5001C18 11.3956 18.8955 10.5001 20 10.5001C21.1046 10.5001 22 11.3955 22 12.5001Z" stroke="#26272B" stroke-width="1.5" stroke-linecap="round" stroke-linejoin="round"/>
</svg>
