<svg width="24" height="24" viewBox="0 0 24 24" fill="none" xmlns="http://www.w3.org/2000/svg">
<path d="M19 8C20.2203 11.174 20.5 12.5 19 13.5C17.5 14.5 15 14.5 13.0005 22H10.999M19 8C15.5 9 12.3955 7.41068 11.6455 4.66064M19 8C15.5 11.5 8.99997 9.50049 5.49997 4.00049M8.50024 4.05284L8.49998 4.05431M8.49998 4.05431C8.37963 4.73339 8.82111 5.3787 9.50024 5.49989C10.1799 5.62116 10.879 5.16294 11.0002 4.48331L12.5002 4.7416M8.49998 4.05431L1.56451 2.85899M16 10C17.25 13 19.5 17.5 22 21.9998L20 22M15 3.99996C15 5.10453 15.8954 5.99998 17 6C18.1046 6.00002 19 5.10461 19 4.00004C18.9999 2.89547 18.1045 2.00002 16.9999 2C15.8954 1.99998 14.9999 2.89539 15 3.99996Z" stroke="#26272B" stroke-width="1.5" stroke-linecap="round" stroke-linejoin="round"/>
</svg>
