<svg width="24" height="24" viewBox="0 0 24 24" fill="none" xmlns="http://www.w3.org/2000/svg">
<path d="M22.6099 20.2526L17 10M1.75 20.2526L18 13M7.5 11.0009C9.75 12.501 11.5 14.0006 13 13.5003C14.5 12.9999 16 2.50049 22.5 15.4998M2.00033 6.5C2.0003 7.5 2.00046 9.5 4.00042 10.5C6.00039 11.5 7.4998 11 9.00005 10C10.5003 9 12.7502 10.5 14 11.5M8 6.99996C7.99998 8.10453 7.10451 8.99998 5.99995 9C4.89538 9.00002 3.99998 8.10461 4 7.00004C4.00002 5.89547 4.89546 5.00002 6.00003 5C7.1046 4.99998 8.00002 5.89539 8 6.99996Z" stroke="#26272B" stroke-width="1.5" stroke-linecap="round" stroke-linejoin="round"/>
</svg>
