<svg width="24" height="24" viewBox="0 0 24 24" fill="none" xmlns="http://www.w3.org/2000/svg">
<path d="M4 5.5C6.75 5.5 14.5003 6.5 14.0001 9C13.5 11.5 6.43506 17.5 3 19.5C3.58584 20.281 3.9143 20.719 4.50014 21.5M11.9997 7.5C9.50016 9.99974 7.50003 12 12 12.5C16.5002 13 16.5 13.5 12.5 18H14.5M14 8.5C16 11 20 10 20 7M8 19.4998H20.5859C20.8511 19.4998 21.1054 19.3945 21.293 19.207L22.0001 18.5M18 3.99996C17.9999 5.10453 17.1045 5.99998 15.9999 6C14.8953 6.00002 13.9999 5.10461 14 4.00004C14 2.89547 14.8954 2.00002 16 2C17.1046 1.99998 18 2.89539 18 3.99996ZM19.5 21C19.5 21.8284 18.8284 22.5 18 22.5C17.1716 22.5 16.5 21.8284 16.5 21C16.5 20.1716 17.1716 19.5 18 19.5C18.8284 19.5 19.5 20.1716 19.5 21ZM12.5 21C12.5 21.8284 11.8284 22.5 11 22.5C10.1716 22.5 9.5 21.8284 9.5 21C9.5 20.1716 10.1716 19.5 11 19.5C11.8284 19.5 12.5 20.1716 12.5 21Z" stroke="#26272B" stroke-width="1.5" stroke-linecap="round" stroke-linejoin="round"/>
</svg>
