<svg width="24" height="24" viewBox="0 0 24 24" fill="none" xmlns="http://www.w3.org/2000/svg">
<path d="M23 12C20.2347 14.6372 15.9276 13.5607 15.1579 12.5777C14.3882 11.5947 5 13.5 5 6.5M15.5005 14.5C4 16 1.00011 14 1.50012 9M23 16.75C20.5 17.5 14.9078 15.4561 15.0002 12.5M13.5 10L10 9.5M20 9.5C20 10.6046 19.1046 11.5 18 11.5C16.8954 11.5 16 10.6046 16 9.5C16 8.39543 16.8954 7.5 18 7.5C19.1046 7.5 20 8.39543 20 9.5Z" stroke="#26272B" stroke-width="1.5" stroke-linecap="round" stroke-linejoin="round"/>
</svg>
