<svg width="24" height="24" viewBox="0 0 24 24" fill="none" xmlns="http://www.w3.org/2000/svg">
<path d="M5.5 5.99996C8.2 5.99996 15 5.99996 15.5 8.49996M15.5 8.49996C16 11 11 16 10 16.5C9 17 5.5 13 5.5 13L4 15M15.5 8.49996C16 9.99996 20.5 10.5 21.5 7.99996M4 11.5L2.5 13.5M13.7372 6.99996C9.99978 11.5 12.4995 12 14.4993 13.5C16.4991 15 18 15 14.6161 20.5H16.9993M14.6161 22.5H16.9993M19 3.49996C19 4.60453 18.1045 5.49998 17 5.5C15.8954 5.50002 15 4.60461 15 3.50004C15 2.39547 15.8955 1.50002 17 1.5C18.1046 1.49998 19 2.39539 19 3.49996Z" stroke="#26272B" stroke-width="1.5" stroke-linecap="round" stroke-linejoin="round"/>
</svg>
