<svg width="24" height="24" viewBox="0 0 24 24" fill="none" xmlns="http://www.w3.org/2000/svg">
<path d="M22.7076 17.7438L5.80386 22.2731C5.00366 22.4875 4.18116 22.0126 3.96675 21.2124M3.3418 9.5273C10.3418 9.0273 18.8418 7.5273 18.8418 2.5273M10.3418 9.02828C10.3418 9.02828 10.8418 11.0283 11.3418 12.0283M14.343 11.5283C8.5 14 7 13.25 9.76333 19.9104L7.83105 20.428M12.8418 8.02828C14.3418 12.5283 16.8873 15.0632 20.3873 17.0632L18.4554 17.5808M12.8418 3.52828C12.8418 4.63285 11.9463 5.5283 10.8418 5.52832C9.73719 5.52834 8.84177 4.63293 8.8418 3.52836C8.84182 2.42379 9.73727 1.52834 10.8418 1.52832C11.9464 1.5283 12.8418 2.42371 12.8418 3.52828Z" stroke="#26272B" stroke-width="1.5" stroke-linecap="round" stroke-linejoin="round"/>
</svg>
