<svg width="24" height="24" viewBox="0 0 24 24" fill="none" xmlns="http://www.w3.org/2000/svg">
<path d="M20.5 17.4999C17 15.4997 13 8.19723 12 9.69723C11 11.1972 10.5 19.197 4 21.697C4.5 20.197 6.5 14.197 5 10.1975M12.1476 9.55007C10.6476 10.0501 8 13.5 4 13.5M14 11C14 14 13.5 17 10.5 15M12.5 16C16.5 17.5 25.5 21.5 11 20.5M16 5C16 6.10457 15.1046 7 14 7C12.8954 7 12 6.10457 12 5C12 3.89543 12.8954 3 14 3C15.1046 3 16 3.89543 16 5Z" stroke="#26272B" stroke-width="1.5" stroke-linecap="round" stroke-linejoin="round"/>
</svg>
