<svg width="24" height="24" viewBox="0 0 24 24" fill="none" xmlns="http://www.w3.org/2000/svg">
<path d="M6.85516 3.35583C5.52798 8.26673 4.63655 14.5126 12.8635 9.76283C21.0904 5.01304 15.2746 2.67285 10.3195 1.3562M11.5 10.5C13.1465 14 13 16.5 10.0308 22H8M13 15H14.5M14 9.49996C15.5 13.5 15.5 16 13.5 22H15.5M12.5 5.99996C12.5 7.10453 11.6046 7.99996 10.5 7.99996C9.39543 7.99996 8.5 7.10453 8.5 5.99996C8.5 4.89539 9.39543 3.99996 10.5 3.99996C11.6046 3.99996 12.5 4.89539 12.5 5.99996Z" stroke="#26272B" stroke-width="1.5" stroke-linecap="round" stroke-linejoin="round"/>
</svg>
