<svg width="24" height="24" viewBox="0 0 24 24" fill="none" xmlns="http://www.w3.org/2000/svg">
<path d="M20.5005 20.0001H18.5005C19.7283 17.3615 19.6505 12.2502 19.5005 11.5001C19.3505 10.75 17.7505 7.2501 14.001 5.4062C10.2515 3.56229 5.49951 8.25045 5.5 9.5C5.50049 10.7496 7.50049 11.5001 7.50049 11.5001M7.50049 11.5001C4.00049 13.5001 4 18.3333 4 20H6M7.50049 11.5001C10.5005 4.50008 15 10.5 14 5.5M13 14.5C13 15.6046 12.1046 16.5 11 16.5C9.89543 16.5 9 15.6046 9 14.5C9 13.3954 9.89543 12.5 11 12.5C12.1046 12.5 13 13.3954 13 14.5Z" stroke="#26272B" stroke-width="1.5" stroke-linecap="round" stroke-linejoin="round"/>
</svg>
