<svg width="24" height="24" viewBox="0 0 24 24" fill="none" xmlns="http://www.w3.org/2000/svg">
<path d="M9.96296 2.04736C13.5 2.99951 15 4.99951 15 7.49951M11.9692 12.5C12.5 15 13.0769 20.5 2 20.5M14.5 9.99998C15.5 12 15 15.5 15 15.5M12.5 15.5C20 15.5 27.5 19.5 16.5 20.5M9.96296 2.04688C13.5 2.99902 15 4.99902 15 7.49902C15 9.99902 12 14.4995 4 14.999M12 7.49998C12 8.60455 11.1046 9.49998 10 9.49998C8.89543 9.49998 8 8.60455 8 7.49998C8 6.39541 8.89543 5.49998 10 5.49998C11.1046 5.49998 12 6.39541 12 7.49998Z" stroke="#26272B" stroke-width="1.5" stroke-linecap="round" stroke-linejoin="round"/>
</svg>
