<svg width="24" height="24" viewBox="0 0 24 24" fill="none" xmlns="http://www.w3.org/2000/svg">
<path d="M9.50004 1.50013C13 3.00005 17.2937 6.6769 15.0261 10.6045C12.7586 14.532 7.68693 13.2546 4.95833 11.6793M15.4995 9.49977C19.4995 10.9998 21 13.5 16.5 14.5C12 15.5 12.5 15 12.9997 20.5006L11.0001 20.5M14.5 12C17.5 12.75 16.5 14.8 21 19.8L19 20.3M9.50106 1.48535L3.97872 13.3281M3.97872 13.3281C3.97872 13.3281 2.42322 13.7061 2.0006 14.6124C1.57798 15.5187 1.81982 16.1832 2.49956 16.5001C3.17929 16.8171 3.84375 16.5753 4.26637 15.6689C4.68899 14.7626 3.97872 13.3281 3.97872 13.3281ZM22 21C22 21 18.8333 22 12.5 22C6.16668 22 3.00001 21 3.00001 21M13.5 8.50001C13.5 9.60458 12.6045 10.5 11.4999 10.5C10.3954 10.5001 9.49996 9.60466 9.49998 8.50009C9.50001 7.39552 10.3954 6.50007 11.5 6.50005C12.6046 6.50003 13.5 7.39544 13.5 8.50001Z" stroke="#26272B" stroke-width="1.5" stroke-linecap="round" stroke-linejoin="round"/>
</svg>
