<svg width="24" height="24" viewBox="0 0 24 24" fill="none" xmlns="http://www.w3.org/2000/svg">
<path d="M22 20.5C22 20.5 18.6667 21.5 12 21.5C5.33333 21.5 2 20.5 2 20.5M3.3371 8.10949C10.228 9.43826 19.8266 9.18933 21.1207 4.3597M11.2266 9.43843C11.2266 9.43843 11.1919 11.4997 11.416 12.595M14.4443 12.8885C8.16073 13.7637 6.90596 12.651 7.85127 19.7997L5.85088 19.7996M13.9004 9.1191C14.1846 13.854 15.9872 16.9613 18.8503 19.7991H16.8503M14.5 3.99996C14.5 5.10453 13.6045 5.99998 12.5 6C11.3954 6.00002 10.5 5.10461 10.5 4.00004C10.5 2.89547 11.3955 2.00002 12.5 2C13.6046 1.99998 14.5 2.89539 14.5 3.99996Z" stroke="#26272B" stroke-width="1.5" stroke-linecap="round" stroke-linejoin="round"/>
</svg>
