<svg width="24" height="24" viewBox="0 0 24 24" fill="none" xmlns="http://www.w3.org/2000/svg">
<path d="M15 13.5C14.25 14.5 13 15.5 13 15.5M12.5 11.5C11.5 12.75 8.5 15.5 6.5 16.5M4 8.50025C6 8.00007 11.5 9.00002 14 12.0004C16.5 15.0008 20 16.0004 22.5 16.0004M2 16.2245C6.26316 18.2243 8.21053 15.7251 12 15.7251C13.5458 15.7251 14.785 16.1409 16 16.4975M19.5001 8.99996C19.5001 10.1045 18.6046 11 17.5 11C16.3955 11 15.5001 10.1046 15.5001 9.00004C15.5001 7.89547 16.3956 7.00002 17.5001 7C18.6047 6.99998 19.5001 7.89539 19.5001 8.99996Z" stroke="#26272B" stroke-width="1.5" stroke-linecap="round" stroke-linejoin="round"/>
</svg>
