<svg width="24" height="24" viewBox="0 0 24 24" fill="none" xmlns="http://www.w3.org/2000/svg">
<path d="M7.00023 15.7501C6.00023 12.2501 7.00013 9.75006 9.00012 8.50006C11.0001 7.25006 13.5 12.5 11 22H13M12.25 14C13.75 10.75 15.5 8 21 5M14.5 2C14.5 4 13 6.5 9.25 8.38966M12 6.58691C13 7.08691 14 8.99994 14 10.4999M10.5 3.99996C10.5 5.10453 9.60453 5.99998 8.49996 6C7.39539 6.00002 6.49998 5.10461 6.5 4.00004C6.50002 2.89547 7.39547 2.00002 8.50004 2C9.60461 1.99998 10.5 2.89539 10.5 3.99996Z" stroke="#26272B" stroke-width="1.5" stroke-linecap="round" stroke-linejoin="round"/>
</svg>
