<svg width="24" height="24" viewBox="0 0 24 24" fill="none" xmlns="http://www.w3.org/2000/svg">
<path d="M6.99974 15.7497C5.99974 12.2497 6.99965 9.74972 8.99964 8.49972C10.9996 7.24972 13.4995 12.4997 10.9995 21.9997H12.9995M14.5 2C14.5 4 13 6.5 9.25 8.38966M12 6.58691C13 7.08691 14 9.5 13.425 11M12.0366 13.9996C13.5366 9.49975 20.2498 0.249291 18.4998 13.9996M10.5 3.99996C10.5 5.10453 9.60453 5.99998 8.49996 6C7.39539 6.00002 6.49998 5.10461 6.5 4.00004C6.50002 2.89547 7.39547 2.00002 8.50004 2C9.60461 1.99998 10.5 2.89539 10.5 3.99996Z" stroke="#26272B" stroke-width="1.5" stroke-linecap="round" stroke-linejoin="round"/>
</svg>
