<svg width="24" height="24" viewBox="0 0 24 24" fill="none" xmlns="http://www.w3.org/2000/svg">
<path d="M4.49998 4.5C7.24998 4.5 16.5 5.5 16.5 8C16.5 9.76109 10.5 15 9.49998 15.5C8.49998 16 6.99998 14.5 4.49998 12.5L3.49998 14.5M14.5 6.25C11.3 9.05176 10.5007 10.5 13.5006 12C16.5005 13.5 17.4999 9 14 17.5L16 17M16.5 7.69961C16.5 10.5 22 10 22 7M2 22.5L22 16.5M16.75 22.075L19.375 21.2875L22 20.5M20 2.99996C20 4.10453 19.1045 4.99998 17.9999 5C16.8954 5.00002 16 4.10461 16 3.00004C16 1.89547 16.8955 1.00002 18 1C19.1046 0.999977 20 1.89539 20 2.99996Z" stroke="#26272B" stroke-width="1.5" stroke-linecap="round" stroke-linejoin="round"/>
</svg>
