<svg width="24" height="24" viewBox="0 0 24 24" fill="none" xmlns="http://www.w3.org/2000/svg">
<path d="M21.5 10L18.5 10.5M20 10.5L22 22H2M9.99972 8C7.50018 10.5 6.99993 12 10.4999 13.5C13.9999 15 14.0004 15 12.5 20.5L15 20M12 8.95C13.5 10 17 8.5 18.5 6M2.5 8.50013C6 6.50011 11.1923 7.50109 11.8999 8.70109C12.7533 10.1482 9.5 14.5 2.5 19L4.5 20.5M15 3.99996C15 5.10453 14.1046 5.99998 13 6C11.8954 6.00002 11 5.10461 11 4.00004C11.0001 2.89547 11.8955 2.00002 13.0001 2C14.1047 1.99998 15.0001 2.89539 15 3.99996Z" stroke="#26272B" stroke-width="1.5" stroke-linecap="round" stroke-linejoin="round"/>
</svg>
