<svg width="24" height="24" viewBox="0 0 24 24" fill="none" xmlns="http://www.w3.org/2000/svg">
<path d="M10.5 11C10.5 16 10 22.5 10 22.5H8.00002M13.5 11V15M10.5 15C14.5 15 19 16 19 17C19 18 15.25 18.25 14 18.5V20.5M10.4995 1.50012L10.5001 3.00011C7.00044 5.00012 1.5005 11.0001 12.0002 11.0001C22.5 11.0001 16.4999 5.00012 13.4746 3.00011L13.4993 1.50012M14 7.00004C14 8.10461 13.1046 9.00004 12 9.00004C10.8954 9.00004 10 8.10461 10 7.00004C10 5.89547 10.8954 5.00004 12 5.00004C13.1046 5.00004 14 5.89547 14 7.00004Z" stroke="#26272B" stroke-width="1.5" stroke-linecap="round" stroke-linejoin="round"/>
</svg>
