<svg width="24" height="24" viewBox="0 0 24 24" fill="none" xmlns="http://www.w3.org/2000/svg">
<path d="M12 9C14 15 16.5 18.5 20 22H18M15.0005 8.5C17 12.5 16.5002 13.5 14.5001 14C12.5 14.5 10 19.25 10 22H8.00014M4.5 7C6.5 8.5 8 9.16667 13 8.33333C18 7.5 21 9.5 22.5 11M11 3.99996C11 5.10453 11.8955 5.99998 13 6C14.1046 6.00002 15 5.10461 15 4.00004C15 2.89547 14.1045 2.00002 13 2C11.8954 1.99998 11 2.89539 11 3.99996ZM2 3.49998C2.00003 4.05226 3.11934 4.49999 4.50005 4.5C5.88076 4.50001 7.00003 4.0523 7 3.50002C6.99997 2.94774 5.88066 2.50001 4.49995 2.5C3.11924 2.49999 1.99997 2.94769 2 3.49998Z" stroke="#26272B" stroke-width="1.5" stroke-linecap="round" stroke-linejoin="round"/>
</svg>
