<svg width="24" height="24" viewBox="0 0 24 24" fill="none" xmlns="http://www.w3.org/2000/svg">
<path d="M15.5911 1.5C13.4995 11.5 12 14 19.4998 22.5H17.5M11.0005 14.4992C11.0005 14.4992 10.5006 11.4999 11.0005 10.4995C11.5005 9.49913 13.9559 9.99997 13.9559 9.99997M14.5 14.9999C7 14 6.5 15.0001 7 22.5004H5M14.5 5.5C14.5 6.60457 13.6046 7.5 12.5 7.5C11.3954 7.5 10.5 6.60457 10.5 5.5C10.5 4.39543 11.3954 3.5 12.5 3.5C13.6046 3.5 14.5 4.39543 14.5 5.5Z" stroke="#26272B" stroke-width="1.5" stroke-linecap="round" stroke-linejoin="round"/>
</svg>
