<svg width="24" height="24" viewBox="0 0 24 24" fill="none" xmlns="http://www.w3.org/2000/svg">
<path d="M1.5 5.5C8.5 9 13.5 9.5 22 7.5L22.5 9.5M14.683 11.5002C14.683 11.5002 11.4333 11.5009 10.683 11.0005C9.93277 10.5002 10.183 8.75051 10.183 8.75051M14.5 8.6466C14.7501 11.8959 15 19 15 19H13.0002M8 9.50018C8 10.6048 7.10457 11.5002 6 11.5002C4.89543 11.5002 4 10.6048 4 9.50018C4 8.39561 4.89543 7.50018 6 7.50018C7.10457 7.50018 8 8.39561 8 9.50018Z" stroke="#26272B" stroke-width="1.5" stroke-linecap="round" stroke-linejoin="round"/>
</svg>
