<svg width="24" height="24" viewBox="0 0 24 24" fill="none" xmlns="http://www.w3.org/2000/svg">
<path d="M3.00015 9.00034C13 9.5 17 9.00034 21 8M10.5 9.5C10.5 9.5 10.2758 11.9047 10.5 13M14.0005 13.4999C7.50096 13.4999 5.50096 12.5 6.0005 21.4996L4.0001 21.4995M14 9.5C13.5 16 16.1369 18.6623 19 21.5H17M14 4.49996C14 5.60453 13.1046 6.49998 12 6.5C10.8954 6.50002 10 5.60461 10 4.50004C10 3.39547 10.8955 2.50002 12.0001 2.5C13.1046 2.49998 14 3.39539 14 4.49996Z" stroke="#26272B" stroke-width="1.5" stroke-linecap="round" stroke-linejoin="round"/>
</svg>
